<?xml version="1.0" standalone="no"?>
<!DOCTYPE svg PUBLIC "-//W3C//DTD SVG 20010904//EN"
 "http://www.w3.org/TR/2001/REC-SVG-20010904/DTD/svg10.dtd">
<svg version="1.0" xmlns="http://www.w3.org/2000/svg"
 width="16.000000pt" height="16.000000pt" viewBox="0 0 16.000000 16.000000"
 preserveAspectRatio="xMidYMid meet">
<metadata>
Created by potrace 1.11, written by Peter Selinger 2001-2013
</metadata>
<g transform="translate(0.000000,16.000000) scale(0.005714,-0.005714)"
fill="#000000" stroke="none">
<path d="M1184 2464 c-174 -30 -358 -122 -479 -240 -67 -66 -90 -97 -128 -174
-29 -59 -32 -73 -32 -157 1 -87 2 -94 31 -130 37 -47 84 -71 151 -78 l52 -5
-16 37 c-32 78 -13 264 38 371 42 86 152 191 233 222 25 9 26 9 21 -23 -4 -17
-11 -52 -16 -77 -6 -25 -12 -52 -14 -60 -5 -27 -117 -533 -132 -600 -8 -36
-16 -76 -19 -90 -3 -14 -18 -83 -34 -155 -16 -71 -31 -141 -34 -155 -2 -14
-14 -68 -26 -120 -12 -52 -24 -106 -26 -120 -3 -14 -9 -41 -14 -60 -5 -19 -12
-51 -15 -70 -13 -76 -47 -188 -73 -234 -37 -67 -69 -89 -139 -94 -50 -3 -64 0
-98 23 -48 31 -67 68 -67 129 0 58 8 82 39 117 49 55 150 64 212 20 17 -12 35
-20 40 -17 5 3 9 32 9 65 0 74 -23 115 -79 140 -49 22 -169 27 -222 9 -64 -23
-123 -77 -154 -143 -24 -52 -28 -71 -27 -150 0 -108 21 -162 83 -221 59 -57
139 -84 246 -84 235 -1 381 80 486 270 49 87 95 246 143 495 3 11 12 56 21
100 9 44 19 91 21 104 3 12 11 51 19 85 8 34 17 79 21 101 3 22 8 43 10 46 2
3 6 21 9 40 3 19 21 106 40 194 76 356 104 491 109 515 2 14 9 46 15 71 6 25
13 63 15 83 l5 37 -78 -3 c-43 -1 -109 -7 -147 -14z"/>
<path d="M1995 2469 c-16 -5 -44 -11 -61 -14 -51 -8 -122 -34 -210 -75 -226
-108 -395 -314 -389 -475 3 -87 16 -126 55 -165 36 -36 65 -47 148 -56 28 -3
33 0 28 13 -45 116 -17 330 55 436 84 123 230 211 389 234 71 11 202 8 242 -6
50 -17 112 -81 127 -132 26 -88 5 -214 -53 -312 -30 -52 -118 -135 -152 -143
-13 -3 -24 -9 -24 -13 0 -3 -20 -7 -45 -9 -25 -1 -45 2 -45 8 0 6 14 74 31
153 31 145 36 168 43 212 3 14 7 33 10 43 3 9 7 28 10 42 2 14 6 32 8 40 4 19
4 19 -182 -7 -80 -11 -85 -11 -111 -12 -15 -1 -30 -8 -33 -17 -5 -14 -78 -348
-92 -419 -2 -11 -24 -115 -49 -230 -25 -116 -47 -219 -49 -230 -2 -11 -14 -65
-26 -120 -12 -55 -24 -111 -26 -125 -5 -22 -29 -138 -40 -185 -2 -11 -7 -36
-10 -55 -3 -19 -8 -38 -10 -42 -3 -4 68 -6 157 -5 l162 2 18 81 c10 45 20 94
22 110 3 16 16 81 30 144 14 63 45 203 67 310 23 107 43 196 45 198 10 11 117
1 144 -13 79 -40 80 -132 5 -421 -79 -306 -77 -386 9 -431 40 -20 132 -24 215
-8 103 20 106 23 73 51 -35 29 -54 95 -47 160 3 27 24 121 46 209 52 202 54
211 54 320 0 81 -3 94 -28 133 -23 36 -60 68 -101 86 -5 3 1 14 15 26 96 83
136 130 168 200 43 96 48 176 17 269 -33 101 -151 194 -289 229 -67 16 -273
23 -321 11z"/>
</g>
</svg>
