<svg xmlns="http://www.w3.org/2000/svg" viewBox="0 0 139.88 139.91"><defs><style>.cls-1{fill:#fff;}</style></defs><title>flake-w</title><g id="Layer_2" data-name="Layer 2"><g id="Õ__1" data-name="Õº≤„_1"><path class="cls-1" d="M69.84,45.86A24.07,24.07,0,1,0,94,69.85,24.13,24.13,0,0,0,69.84,45.86ZM70,91.41A21.46,21.46,0,1,1,91.38,69.88,21.45,21.45,0,0,1,70,91.41Z"/><path class="cls-1" d="M71.47,136.12c0,.17-.08.3-.17.29H69.08c-.09,0-.17-.14-.18-.27L68.39,5.26A.35.35,0,0,1,68.56,5h2.22c.11,0,.19.14.18.31Z"/><path class="cls-1" d="M79.46,2.89l-.85-.69a.27.27,0,0,0-.39,0L69.71,12.75,61.11,2.27a.32.32,0,0,0-.39,0l-.84.69c-.12.12-.15.29,0,.39l8.87,10.76a.27.27,0,0,0,.38.06l.61-.53.64.51a.29.29,0,0,0,.37,0L79.51,3.23A.23.23,0,0,0,79.46,2.89Z"/><path class="cls-1" d="M73.88.47,73.53.19a.13.13,0,0,0-.17,0L69.59,4.63,66,.08A.11.11,0,0,0,65.81,0l-.36.28s-.07.13,0,.17l3.73,4.74a.1.1,0,0,0,.15,0l.27-.2.27.23c.06,0,.13,0,.17,0L73.89.64A.11.11,0,0,0,73.88.47Z"/><path class="cls-1" d="M80.59,13.18l-1-.79a.3.3,0,0,0-.43.06L69.76,24.11,60.21,12.49a.33.33,0,0,0-.43,0l-.95.77a.31.31,0,0,0,0,.43l9.83,12a.33.33,0,0,0,.43,0l.68-.57.7.56a.33.33,0,0,0,.43,0l9.74-12.07A.26.26,0,0,0,80.59,13.18Z"/><path class="cls-1" d="M83.72,21.42l-1.2-1a.41.41,0,0,0-.57.06l-12.15,15L57.52,20.59a.41.41,0,0,0-.56-.07l-1.2,1a.35.35,0,0,0-.05.52L68.36,37.45a.4.4,0,0,0,.56,0l.88-.73.91.74a.39.39,0,0,0,.54-.06l12.52-15.5A.36.36,0,0,0,83.72,21.42Z"/><path class="cls-1" d="M60.42,137l.85.69a.32.32,0,0,0,.39,0l8.52-10.54,8.6,10.44a.25.25,0,0,0,.36.06L80,137a.27.27,0,0,0,0-.39l-8.84-10.8a.32.32,0,0,0-.39,0l-.63.53-.62-.51a.27.27,0,0,0-.39,0l-8.77,10.83A.28.28,0,0,0,60.42,137Z"/><path class="cls-1" d="M66,139.45l.35.28s.13.05.15,0l3.78-4.45,3.59,4.56a.11.11,0,0,0,.17.05l.36-.33c.07,0,.07-.08,0-.13l-3.71-4.74a.1.1,0,0,0-.15,0l-.29.2-.27-.23a.09.09,0,0,0-.15,0L66,139.27A.12.12,0,0,0,66,139.45Z"/><path class="cls-1" d="M59.3,126.74l.93.78a.34.34,0,0,0,.44-.06l9.46-11.65,9.55,11.57a.3.3,0,0,0,.41.07l.95-.77a.31.31,0,0,0,0-.43l-9.83-12a.29.29,0,0,0-.43,0l-.7.57-.7-.56a.29.29,0,0,0-.43,0l-9.74,12A.31.31,0,0,0,59.3,126.74Z"/><path class="cls-1" d="M56.14,118.49l1.22,1a.38.38,0,0,0,.54-.06l12.17-15,12.28,14.91a.38.38,0,0,0,.54.07l1.22-1a.4.4,0,0,0,.05-.56L71.52,102.46a.37.37,0,0,0-.56,0l-.9.73-.89-.74a.38.38,0,0,0-.54.06L56.09,117.93A.4.4,0,0,0,56.14,118.49Z"/><path class="cls-1" d="M136.11,68.4c.17,0,.3.1.29.19v2.2c0,.13-.14.16-.27.2L5.26,71.48c-.15,0-.28-.06-.27-.14V69.09c0-.09.12-.17.27-.16Z"/><path class="cls-1" d="M2.87,60.43l-.7.87a.23.23,0,0,0,0,.35L12.73,70.2,2.29,78.78a.26.26,0,0,0,0,.39l.69.86a.32.32,0,0,0,.39,0l10.76-8.86a.27.27,0,0,0,0-.39l-.5-.63.51-.62a.28.28,0,0,0,0-.39L3.26,60.4A.27.27,0,0,0,2.87,60.43Z"/><path class="cls-1" d="M.47,66l-.3.37a.14.14,0,0,0,0,.17l4.46,3.78L.06,73.91a.11.11,0,0,0,0,.17l.28.36a.13.13,0,0,0,.17,0l4.71-3.71c.07,0,.07-.08,0-.17L5,70.3l.23-.25a.12.12,0,0,0,0-.17L.64,66A.13.13,0,0,0,.47,66Z"/><path class="cls-1" d="M13.16,59.29l-.77,1a.3.3,0,0,0,0,.43l11.68,9.44L12.49,79.68a.3.3,0,0,0,0,.43l.77.95a.29.29,0,0,0,.43,0l12-9.83a.31.31,0,0,0,0-.43l-.57-.68.58-.7a.33.33,0,0,0,0-.43l-12-9.77A.31.31,0,0,0,13.16,59.29Z"/><path class="cls-1" d="M21.4,56.16l-1,1.2a.41.41,0,0,0,.05.56l15,12.18L20.57,82.37a.41.41,0,0,0-.07.56l1,1.22a.38.38,0,0,0,.54,0L37.43,71.55a.4.4,0,0,0,.05-.56l-.75-.9.74-.91a.36.36,0,0,0-.06-.52L21.94,56.11A.38.38,0,0,0,21.4,56.16Z"/><path class="cls-1" d="M137,79.5l.69-.87a.32.32,0,0,0,0-.39l-10.54-8.52,10.44-8.59a.28.28,0,0,0,.06-.39l-.69-.86c-.12-.09-.29-.15-.39,0l-10.8,8.87a.32.32,0,0,0,0,.39l.53.59-.51.66a.23.23,0,0,0,0,.35l10.83,8.79A.32.32,0,0,0,137,79.5Z"/><path class="cls-1" d="M139.39,73.89l.32-.33c0-.08,0-.13,0-.17l-4.46-3.78,4.56-3.6s.09-.13,0-.17l-.28-.36s-.08-.09-.13,0l-4.74,3.72a.13.13,0,0,0,0,.17l.2.27-.23.29a.11.11,0,0,0,0,.17l4.58,3.88A.08.08,0,0,0,139.39,73.89Z"/><path class="cls-1" d="M126.73,80.62l.79-1a.33.33,0,0,0-.06-.44l-11.65-9.44,11.57-9.56a.33.33,0,0,0,.07-.43l-.77-.95a.29.29,0,0,0-.43,0l-12,9.84a.29.29,0,0,0,0,.43l.57.68-.56.7a.29.29,0,0,0,0,.43l12,9.72A.28.28,0,0,0,126.73,80.62Z"/><path class="cls-1" d="M118.48,83.75l1-1.2c.14-.21.15-.42-.06-.56l-15-12.17,14.94-12.27a.4.4,0,0,0,.07-.56l-1-1.22a.4.4,0,0,0-.56,0L102.45,68.37a.4.4,0,0,0-.05.56l.73.9-.72.91a.34.34,0,0,0,.06.52L118,83.81A.36.36,0,0,0,118.48,83.75Z"/><path class="cls-1" d="M115.23,21.67c.09-.12.22-.16.31-.07l1.6,1.51a.29.29,0,0,1-.11.34L25.7,117.18c-.09.12-.25.16-.31.07l-1.6-1.56c-.06,0,0-.22.08-.3Z"/><path class="cls-1" d="M16.13,111.13l.13,1.09a.25.25,0,0,0,.29.23L30,110.94l-1.19,13.49a.25.25,0,0,0,.24.27l1.1.1a.32.32,0,0,0,.29-.24l1.21-13.92a.25.25,0,0,0-.24-.27l-.82-.09-.09-.78a.24.24,0,0,0-.29-.23l-13.85,1.57A.27.27,0,0,0,16.13,111.13Z"/><path class="cls-1" d="M18.43,116.74l.06.48s.06.13.12.09l5.81-.5-.66,5.79a.14.14,0,0,0,.12.14l.45,0c.06,0,.13,0,.13-.08l.65-6s0-.09-.1-.09l-.34-.06,0-.35a.15.15,0,0,0-.13-.09l-6,.54C18.48,116.61,18.43,116.69,18.43,116.74Z"/><path class="cls-1" d="M22.55,103l.13,1.17a.29.29,0,0,0,.33.28l14.94-1.69-1.31,14.95a.3.3,0,0,0,.26.36l1.22.11a.31.31,0,0,0,.32-.29L39.8,102.5a.37.37,0,0,0-.26-.36l-.9,0-.1-.91a.33.33,0,0,0-.33-.28l-15.4,1.79A.26.26,0,0,0,22.55,103Z"/><path class="cls-1" d="M26.08,94.93l.17,1.56a.38.38,0,0,0,.44.33l19.2-2.19-1.7,19.24a.46.46,0,0,0,.36.45l1.55.13a.41.41,0,0,0,.43-.37l1.75-19.84a.39.39,0,0,0-.37-.41l-1.14-.1-.13-1.17a.41.41,0,0,0-.44-.33L26.43,94.47A.41.41,0,0,0,26.08,94.93Z"/><path class="cls-1" d="M123.73,28.78l-.11-1.08a.23.23,0,0,0-.29-.23L109.87,29l1.21-13.48a.28.28,0,0,0-.24-.27l-1.12-.1a.28.28,0,0,0-.27.24l-1.23,13.87a.29.29,0,0,0,.24.32l.82.09.09.78c0,.18.16.27.29.23l13.85-1.57A.23.23,0,0,0,123.73,28.78Z"/><path class="cls-1" d="M121.45,23.18l-.06-.48c0-.09,0-.13-.13-.09l-5.81.5.66-5.79a.14.14,0,0,0-.12-.14l-.47,0s-.09,0-.09.08l-.67,6c0,.09,0,.13.08.13l.34.06.07.35s0,.09.13.09l6-.54S121.45,23.22,121.45,23.18Z"/><path class="cls-1" d="M117.33,36.89l-.11-1.21a.35.35,0,0,0-.38-.24l-14.92,1.69,1.32-15a.33.33,0,0,0-.29-.32l-1.2-.11a.33.33,0,0,0-.34.28l-1.36,15.42a.29.29,0,0,0,.28.32l.9.09.1.91a.29.29,0,0,0,.33.23l15.42-1.75A.28.28,0,0,0,117.33,36.89Z"/><path class="cls-1" d="M113.83,45l-.22-1.57a.34.34,0,0,0-.41-.32L94,45.28,95.68,26a.41.41,0,0,0-.34-.45l-1.57-.13a.42.42,0,0,0-.43.36L91.61,45.67a.36.36,0,0,0,.34.41l1.16.11.13,1.13a.43.43,0,0,0,.43.37l19.78-2.29A.39.39,0,0,0,113.83,45Z"/><path class="cls-1" d="M24.28,22c-.1-.09-.25-.14-.32-.06L22.38,23.5c-.07.08,0,.21.09.31l92.09,93a.23.23,0,0,0,.29.1l1.6-1.55a.38.38,0,0,0-.07-.35Z"/><path class="cls-1" d="M124.09,110.73l-.15,1.07a.28.28,0,0,1-.27.24l-13.47-1.43,1.29,13.45a.3.3,0,0,1-.23.33l-1.08.07a.3.3,0,0,1-.33-.23l-1.31-13.88a.25.25,0,0,1,.23-.29l.83-.08.09-.81a.29.29,0,0,1,.31-.24l13.86,1.49A.29.29,0,0,1,124.09,110.73Z"/><path class="cls-1" d="M121.8,116.34l0,.47s0,.13-.13.08l-5.8-.45.68,5.78s0,.13-.09.12l-.48.06s-.13-.05-.12-.09l-.71-6s0-.13.09-.13l.35,0,.06-.34c0-.09,0-.13.09-.12l6,.5S121.8,116.25,121.8,116.34Z"/><path class="cls-1" d="M117.62,102.65l-.15,1.2a.24.24,0,0,1-.31.24l-15-1.55,1.47,14.93c0,.17-.1.34-.28.33l-1.24.15a.32.32,0,0,1-.33-.28l-1.49-15.45a.34.34,0,0,1,.28-.33l.91-.08.09-.86a.31.31,0,0,1,.32-.28l15.43,1.62A.33.33,0,0,1,117.62,102.65Z"/><path class="cls-1" d="M114,94.55l-.17,1.59a.33.33,0,0,1-.41.32l-19.25-2L96,113.68a.37.37,0,0,1-.35.41l-1.56.17a.44.44,0,0,1-.43-.37L91.79,94.07a.36.36,0,0,1,.34-.41l1.15-.11.13-1.16a.42.42,0,0,1,.43-.36l19.8,2.12A.39.39,0,0,1,114,94.55Z"/><path class="cls-1" d="M15.81,29.19l.1-1.07a.28.28,0,0,1,.31-.24L29.68,29.3,28.39,15.85a.32.32,0,0,1,.23-.33l1.08-.11a.29.29,0,0,1,.31.28l1.33,13.88a.29.29,0,0,1-.25.29l-.8.09-.08.77c0,.17-.14.29-.29.24L16.06,29.5A.26.26,0,0,1,15.81,29.19Z"/><path class="cls-1" d="M18.06,23.57l0-.47a.12.12,0,0,1,.14-.12l5.8.49-.68-5.78a.1.1,0,0,1,.09-.12l.48-.06a.17.17,0,0,1,.12.09l.71,6s0,.08-.11.12l-.34,0,0,.34a.13.13,0,0,1-.14.12l-6-.5S18.06,23.61,18.06,23.57Z"/><path class="cls-1" d="M22.28,37.27l.13-1.2a.31.31,0,0,1,.34-.28l14.93,1.59-1.43-15a.33.33,0,0,1,.28-.33L37.72,22a.31.31,0,0,1,.33.28l1.49,15.4a.29.29,0,0,1-.28.33l-.89.08-.09.9a.33.33,0,0,1-.34.28l-15.4-1.62A.37.37,0,0,1,22.28,37.27Z"/><path class="cls-1" d="M25.87,45.32,26,43.77a.41.41,0,0,1,.43-.37l19.22,2L43.84,26.23a.38.38,0,0,1,.37-.41l1.54-.17a.4.4,0,0,1,.43.37l1.89,19.83a.37.37,0,0,1-.35.41l-1.15.11-.11,1.16a.38.38,0,0,1-.45.32L26.24,45.77A.43.43,0,0,1,25.87,45.32Z"/></g></g></svg>