<svg xmlns="http://www.w3.org/2000/svg" viewBox="0 0 100 100"><defs><style>.cls-1{fill:#fafafa;}.cls-2{fill:#ffaa2b;}</style></defs><title>illustrator-round-inv</title><g id="Layer_2" data-name="Layer 2"><g id="Lager_1" data-name="Lager 1"><circle class="cls-1" cx="50" cy="50" r="50"/><g id="Ai"><path class="cls-2" d="M37,58.9,33.6,70H26.2L38.7,30.9h9.1L60.6,70H52.9L49.4,58.9Zm11.2-5.4-3.1-9.6c-.8-2.4-1.4-5-2-7.3H43c-.6,2.3-1.2,5-1.9,7.3l-3,9.6Z"/><path class="cls-2" d="M71,33.9a3.82,3.82,0,0,1-4.1,3.8A3.7,3.7,0,0,1,63,33.9,3.81,3.81,0,0,1,67,30,3.87,3.87,0,0,1,71,33.9ZM63.4,70V41.8h7.2V70Z"/></g></g></g></svg>