<svg xmlns="http://www.w3.org/2000/svg" viewBox="0 0 100 100"><defs><style>.cls-1{fill:#fafafa;}.cls-2{fill:#0769ad;}</style></defs><title>jquery-round-inv</title><g id="Layer_2" data-name="Layer 2"><g id="Lager_1" data-name="Lager 1"><circle class="cls-1" cx="50" cy="50" r="50"/><g id="Layer_6" data-name="Layer 6"><path class="cls-2" d="M22.8,35.9c-5.2,7.5-4.6,17.3-.6,25.3l.3.6c.1.1.1.2.2.4s.1.1.1.2.1.2.2.4a4.35,4.35,0,0,1,.4.7c.1.1.1.2.2.4s.3.5.4.7.1.2.2.3l.6.9h0l.1.1c.2.3.4.5.6.8.1.1.1.2.2.3a1.79,1.79,0,0,1,.5.7c.1.1.1.2.2.2a6.47,6.47,0,0,0,.8.9h0l.8.8.2.2.6.6c.1.1.2.2.3.2a6,6,0,0,1,.8.8h0l.1.1c.3.2.5.4.8.6l.3.3c.2.2.4.3.6.5l.3.3c.2.2.5.3.7.5s.2.1.3.2l.1.1c.2.2.5.3.7.5s.2.1.3.2a6.73,6.73,0,0,1,1.1.7c.1.1.2.1.3.2.3.2.5.3.8.5a.76.76,0,0,0,.4.2l.6.3a.1.1,0,0,1,.1.1.35.35,0,0,1,.2.1c.3.1.6.3.9.4.1,0,.1.1.2.1a4.87,4.87,0,0,0,1.1.4c.1,0,.2.1.3.1.3.1.7.3,1,.4h.1c.4.1.8.3,1.1.4.1,0,.2.1.3.1a5.27,5.27,0,0,0,1.2.3c25.3,4.6,32.7-15.2,32.7-15.2C70.3,71.9,59.3,74,49,71.6l-1.2-.3c-.1,0-.2-.1-.3-.1a4.87,4.87,0,0,1-1.1-.4c-.1,0-.1,0-.2-.1a4.18,4.18,0,0,1-1-.4c-.1,0-.2-.1-.3-.1-.4-.1-.7-.3-1.1-.4-.1,0-.1-.1-.2-.1-.3-.1-.6-.3-.9-.4-.1,0-.2-.1-.3-.1a2.51,2.51,0,0,1-.7-.4c-.2-.1-.3-.2-.5-.2a5.58,5.58,0,0,1-.8-.5c-.1-.1-.2-.1-.3-.2a6.73,6.73,0,0,1-1.1-.7c-.1-.1-.2-.1-.3-.2-.3-.2-.5-.3-.8-.5-.1-.1-.2-.1-.2-.2-.2-.2-.5-.3-.7-.5s-.2-.2-.3-.2a4.23,4.23,0,0,0-.7-.5c-.1-.1-.2-.2-.3-.2-.3-.2-.5-.5-.8-.7a.1.1,0,0,1-.1-.1c-.3-.3-.6-.5-.9-.8l-.2-.2-.6-.6-.2-.2-.8-.8h0c-.3-.3-.5-.6-.8-.9-.1-.1-.1-.2-.2-.2-.2-.2-.4-.5-.6-.7s-.1-.2-.2-.3l-.6-.9c-5.8-7.9-7.8-18.7-3.2-27.6"/><path class="cls-2" d="M39,29.5C35.2,35,35.4,42.2,38.4,48a26.06,26.06,0,0,0,1.7,2.8A15.45,15.45,0,0,0,42,53.2l.9.9.2.2c.3.3.6.5.9.8h0a7,7,0,0,0,1,.8c.1.1.2.1.2.2a10.47,10.47,0,0,0,1.1.8h0c.2.1.3.2.5.3s.2.1.2.2c.3.2.5.3.8.5a.1.1,0,0,1,.1.1c.2.1.5.3.7.4a.35.35,0,0,1,.2.1c.2.1.3.2.5.3h.1c.3.2.7.3,1,.5.1,0,.1.1.2.1a6.89,6.89,0,0,1,.8.3c.1,0,.2.1.4.1s.5.2.8.3c.1,0,.2.1.3.1a4.51,4.51,0,0,0,1.1.3c19.6,3.2,24.1-11.8,24.1-11.8-4.1,5.9-12,8.7-20.4,6.5l-1.1-.3c-.1,0-.2-.1-.3-.1-.3-.1-.5-.2-.8-.3-.1,0-.2-.1-.3-.1a6.89,6.89,0,0,1-.8-.3.35.35,0,0,1-.2-.1c-.3-.2-.7-.3-1-.5s-.3-.2-.5-.3-.2-.1-.3-.2a2.09,2.09,0,0,1-.6-.4c-.1,0-.1-.1-.2-.1-.3-.2-.5-.3-.8-.5-.1-.1-.2-.1-.2-.2-.2-.1-.3-.2-.5-.3a7.63,7.63,0,0,1-1.1-.8c-.1-.1-.2-.1-.2-.2a23.6,23.6,0,0,1-8-11.4,17.64,17.64,0,0,1,1.4-14.2"/><path class="cls-2" d="M52.7,24.8a11.37,11.37,0,0,0-.9,11,15.17,15.17,0,0,0,8.9,8.3c.2.1.3.1.5.2s.1,0,.2.1a1.85,1.85,0,0,0,.7.2c10.8,2.1,13.7-5.5,14.5-6.7-2.6,3.7-6.9,4.6-12.2,3.3-.4-.1-.9-.3-1.3-.4l-1.5-.6c-.9-.5-1.8-1-2.7-1.6-4.7-3.6-7.7-10.4-4.6-16"/></g></g></g></svg>