<svg xmlns="http://www.w3.org/2000/svg" viewBox="0 0 100 100"><defs><style>.cls-1{fill:#fafafa;}.cls-2{fill:#cf1f25;}</style></defs><title>js-round-inv</title><g id="Layer_2" data-name="Layer 2"><g id="Lager_1" data-name="Lager 1"><circle class="cls-1" cx="50" cy="50" r="50"/><g id="Layer_1-2" data-name="Layer 1"><path class="cls-2" d="M34.4,30.6h8.7V55.1c0,11-5.3,14.9-13.7,14.9a21.52,21.52,0,0,1-6.4-.9L24,62a14.66,14.66,0,0,0,4.5.7c3.7,0,6-1.7,6-7.6l-.1-24.5Z"/><path class="cls-2" d="M50.8,60.4a22.31,22.31,0,0,0,9.7,2.4c4,0,6.1-1.7,6.1-4.3,0-2.4-1.8-3.8-6.5-5.4-6.4-2.3-10.7-5.9-10.7-11.6C49.4,35,55,30,64.1,30A22.62,22.62,0,0,1,74,32l-2,7a18.82,18.82,0,0,0-8-1.8c-3.8,0-5.6,1.8-5.6,3.7,0,2.5,2.1,3.6,7.2,5.5,6.8,2.5,10,6.1,10,11.6,0,6.5-4.9,12-15.6,12a25.65,25.65,0,0,1-11-2.4Z"/></g></g></g></svg>