<svg xmlns="http://www.w3.org/2000/svg" viewBox="0 0 100 100"><defs><style>.cls-1{fill:#fafafa;}.cls-2{fill:#30267e;}</style></defs><title>photoshop-round-inv</title><g id="Layer_2" data-name="Layer 2"><g id="Lager_1" data-name="Lager 1"><circle class="cls-1" cx="50" cy="50" r="50"/><g id="Ps"><path class="cls-2" d="M27,30.8A59.16,59.16,0,0,1,37.9,30c5.2,0,9.1,1.1,11.6,3.2a11.12,11.12,0,0,1,3.8,8.7,12,12,0,0,1-3.4,8.9C47.1,53.6,42.6,55,37.5,55a33.19,33.19,0,0,1-3.5-.2V69.5H27V30.8ZM34.1,49a16.22,16.22,0,0,0,3.5.3c5.3,0,8.6-2.6,8.6-7.2,0-4.4-3-6.7-8-6.7a27.39,27.39,0,0,0-4.1.3Z"/><path class="cls-2" d="M56.5,62.9a15.7,15.7,0,0,0,7.3,2c3.1,0,4.5-1.3,4.5-3.1s-1.2-2.9-4.6-4.1c-5.5-1.9-7.8-4.9-7.8-8.2,0-5,4.1-8.9,10.7-8.9a16.29,16.29,0,0,1,7.5,1.7l-1.4,5.1a12.69,12.69,0,0,0-6-1.6c-2.6,0-3.9,1.2-3.9,3s1.3,2.7,4.9,3.9c5.1,1.9,7.5,4.5,7.5,8.7,0,5.1-4,8.8-11.5,8.8a17.91,17.91,0,0,1-8.6-2Z"/></g></g></g></svg>