<svg xmlns="http://www.w3.org/2000/svg" viewBox="0 0 100 100"><defs><style>.cls-1{fill:#36447f;}.cls-2{fill:#c9d5f7;}</style></defs><title>php-round</title><g id="Layer_2" data-name="Layer 2"><g id="Lager_1" data-name="Lager 1"><circle class="cls-1" cx="50" cy="50" r="50"/><g id="Layer_2-2" data-name="Layer 2"><path class="cls-2" d="M27.7,42.7c2.3,0,3.8.4,4.6,1.3s.9,2.3.5,4.3a7.27,7.27,0,0,1-2.4,4.6A8.93,8.93,0,0,1,25,54.3H21.3l2.2-11.6ZM13,66h6l1.4-7.4h5.2a17.78,17.78,0,0,0,5.6-.7,11,11,0,0,0,4-2.4,14.79,14.79,0,0,0,2.5-3.1A11.64,11.64,0,0,0,39,48.7c.6-3.3.2-5.8-1.4-7.7s-4.1-2.7-7.6-2.7H18.4Z"/><path class="cls-2" d="M45.1,31h6l-1.4,7.4H55c3.3,0,5.7.6,6.9,1.8s1.7,3.1,1.1,5.7L60.5,58.8H54.4l2.4-12.2c.3-1.4.2-2.3-.3-2.8a4.31,4.31,0,0,0-3-.8H48.7L45.6,58.8h-6Z"/><path class="cls-2" d="M76.4,42.7c2.3,0,3.8.4,4.6,1.3s.9,2.3.5,4.3a7.27,7.27,0,0,1-2.4,4.6,8.93,8.93,0,0,1-5.4,1.4H70l2.2-11.6ZM61.7,66h6l1.4-7.4h5.2a17.78,17.78,0,0,0,5.6-.7,11,11,0,0,0,4-2.4,14.79,14.79,0,0,0,2.5-3.1,11.64,11.64,0,0,0,1.3-3.7c.6-3.3.2-5.8-1.4-7.7s-4.1-2.7-7.6-2.7H67.1Z"/></g></g></g></svg>