<svg xmlns="http://www.w3.org/2000/svg" viewBox="0 0 406.22 137.99"><defs><style>.cls-1,.cls-2,.cls-4{fill:#fff;}.cls-2,.cls-4{stroke:#fff;stroke-miterlimit:10;}.cls-2{stroke-width:0.19px;}.cls-3{fill:#cec4af;}.cls-4{stroke-width:0.13px;}</style></defs><title>range2</title><g id="Layer_2" data-name="Layer 2"><g id="Objects"><polygon points="406.22 135.1 377.46 107.1 355.13 94.23 346.43 99.91 331.67 80.61 312.75 64.33 297.61 73.04 273.39 43.52 243.12 15.52 225.71 28.38 197.71 0 140.19 67.55 123.54 59.41 96.67 89.69 77.93 89.08 41.8 116.94 24.77 121.1 14.17 135.1 406.22 135.1"/><polygon class="cls-1" points="355.7 100.47 367.25 105.58 376.33 115.04 366.01 110.88 358.16 109.93 355.7 100.47"/><path class="cls-1" d="M319.37,98.2l12.3,2.27,10.22,7.28.95,5.77s-4.16-4.16-6.81-4.92c0,0,.76,6.05,3.41,7.38l-6.81-.95-11.16-9.27Z"/><polygon class="cls-1" points="313.13 71.9 326.56 83.82 329.59 90.82 323.16 89.31 315.4 89.31 315.4 79.09 312.18 77.2 313.13 71.9"/><path class="cls-1" d="M298.75,79.66l-3.22,1.7L266,46.55,242.17,24.79l-4.92,4.16.38,8.51,14,10.41-.76,11.54,14,2.65,3.22,2.08-2.46,14.38L270,93.47l-4.73,10,8.81,5.82,16.08,16-1.25-5.14-6.24-11.35-.19-14-6.24-11.54s3.6-6.81,22.52,13.06l6.81-.95L295.91,84.2Z"/><path class="cls-2" d="M197,8.14V17l7.38,6.43V40.11l-.95,6.62,15.7,16.08S217.91,76,208.45,83l1,4.31,16.1,7.09v8.53l8.89-2.46,10.6,8.7-2.08-5.49-5.68-10.22V89.31s10.6-1.51,17.6,4.73l-5.11-8.7-7.19-7.19.19-7.76-6.62-5.68-.57-8.51s-10.6-10.79-17-14L218,38.79s2.84-2.46,6.43.38,3.41,3,3.41,3l-3.6-6.43Z"/><path class="cls-1" d="M174.62,79.47l.88,6.31-.88,2.78H160.87s2.4,15.77,14.63,19.43h8.58s15.77,9.84,20.06,10.6l-1.26,1.26h-9L186,115l-6.69,6.18s-11.1-6.56-21.19-6.56l-1.26-13.12L144.1,94.36l-3.28-3.66-.88-8.45H128.46V73.16a5.74,5.74,0,0,0-2.9-3l-.5-3.91,20.81,9.71h7.69l3.53-1.39S167.06,73.54,174.62,79.47Z"/><path class="cls-1" d="M68.41,101.42l8.33-7.69,17.53,1.89,9.33,7.44s-1.64,5.8,3.41,9.21l9.21,6.31v3.28L99.44,111.64l-8.07-1.14-9.46-9.33Z"/><polygon points="4.12 135.94 14.56 122.15 26.82 119.15 50.22 97.39 65.93 99.52 85.29 77.7 97.06 83.46 138.26 35.07 158.44 55.52 170.72 46.45 193.53 67.55 209.7 87.25 220.18 81.22 234.86 93.84 244.3 106.18 249.93 102.51 267.07 112.39 291.26 135.94 4.12 135.94"/><path class="cls-3" d="M138.38,38.1l19.86,20.12,12.34-9.12L192,69l17.17,20.93,10.73-6.17,13.42,11.54,10.46,13.68,6.17-4L265.83,114l20.39,19.86H8.24L15.75,124l12.07-3L50.9,99.55l15.83,2.15L85.78,80.23,97.59,86l40.78-47.9M138.15,32l-2.9,3.4L96.53,80.92l-8.95-4.37-2.8-1.37-2.07,2.33L65.12,97.34,51.45,95.49l-1.92-.26-1.42,1.32L25.82,117.29l-11,2.7-1.42.35-.88,1.16L5,131.42,0,138H296.3l-7.22-7L268.69,111.1l-.37-.36-.44-.26L252,101.36l-2.18-1.26-2.11,1.37-3,1.95-8.16-10.66-.26-.34-.32-.28L222.62,80.61l-2.2-1.89-2.51,1.45-7.72,4.44-15-18.25-.18-.22-.21-.19L173.36,46.09l-2.49-2.3-2.73,2-9.49,7-17.36-17.6L138.15,32Z"/><polygon class="cls-1" points="220.21 89.08 229.74 97.53 231.89 102.5 227.32 101.42 221.82 101.42 221.82 94.18 219.54 92.84 220.21 89.08"/><path class="cls-1" d="M210,94.58l-2.28,1.21L186.81,71.11,169.9,55.68l-3.49,3,.27,6L176.61,72l-.54,8.18L186,82.11l2.28,1.48-1.74,10.2,3.09,10.6.13,7L188.28,114l14.62,12.61.13-3.35-4.43-8-.13-9.93-4.43-8.18s2.55-4.83,16,9.26l4.83-.67L208,97.8Z"/><path class="cls-4" d="M137.84,43.87v6.31l5.23,4.56V66.54l-.67,4.7,11.14,11.4s1.34,8.18-5.37,13.15l.27,2.28,9.66,7.11v5.9l6.31-1.74,7.51,6.17-1.48-3.89-4-7.24v-3s7.51-1.07,12.48,3.35l-3.62-6.17-5.1-5.1.13-5.5-4.7-4-.4-6S157.69,70.3,153.13,68l-.4-2.41a3.52,3.52,0,0,1,4.56.27c2.55,2,2.41,2.15,2.41,2.15l-2.55-4.56Z"/><path class="cls-1" d="M122,94.45l.63,4.47-.63,2h-9.75s1.7,11.18,10.38,13.77h6.08s11.18,7,14.22,7.51l-.89.89h-6.35l-5.63-3.4-4.74,4.38s-7.87-4.65-15-4.65l-.89-9.3-9-5.1L98,102.41l-.63-6H89.27V90a4.07,4.07,0,0,0-2.06-2.15l-.36-2.77,14.76,6.89h5.46l2.5-1S116.64,90.25,122,94.45Z"/><path class="cls-1" d="M46.7,110l5.9-5.46L65,105.9l6.62,5.28a6.12,6.12,0,0,0,2.41,6.53l6.53,4.47v2.33l-11.9-7.24-5.72-.8-6.71-6.62Z"/></g></g></svg>