<svg xmlns="http://www.w3.org/2000/svg" viewBox="0 0 392.05 135.1"><defs><style>.cls-1{fill:#fff;}.cls-2{fill:#070707;}</style></defs><title>range-r</title><g id="Layer_2" data-name="Layer 2"><g id="Objects"><polygon class="cls-1" points="392.06 135.1 363.29 107.1 340.97 94.23 332.26 99.91 317.5 80.61 298.58 64.33 283.44 73.04 259.23 43.52 228.95 15.52 211.54 28.38 183.54 0 126.02 67.55 109.37 59.41 82.5 89.69 63.76 89.08 27.63 116.94 10.6 121.1 0 135.1 392.06 135.1"/><polygon class="cls-2" points="341.53 100.47 353.08 105.58 362.16 115.04 351.85 110.88 343.99 109.93 341.53 100.47"/><path class="cls-2" d="M305.2,98.2l12.3,2.27,10.22,7.28.95,5.77s-4.16-4.16-6.81-4.92c0,0,.76,6.05,3.41,7.38l-6.81-.95-11.16-9.27Z"/><polygon class="cls-2" points="298.96 71.9 312.39 83.82 315.42 90.82 308.99 89.31 301.23 89.31 301.23 79.09 298.01 77.2 298.96 71.9"/><path class="cls-2" d="M284.58,79.66l-3.22,1.7L251.85,46.55,228,24.79l-4.92,4.16.38,8.51,14,10.41-.76,11.54,14,2.65,3.22,2.08-2.46,14.38,4.35,14.95-4.73,10,8.81,5.82,16.08,16-1.24-5.14L268.5,108.8l-.19-14-6.24-11.54s3.6-6.81,22.52,13.06l6.81-.95L281.74,84.2Z"/><path class="cls-2" d="M182.78,8.14V17l7.38,6.43V40.11l-.95,6.62,15.7,16.08S203.74,76,194.28,83l1,4.31,16.1,7.09v8.53l8.89-2.46,10.6,8.7-2.08-5.49-5.68-10.22V89.31s10.6-1.51,17.6,4.73l-5.11-8.7-7.19-7.19.19-7.76-6.62-5.68-.57-8.51s-10.6-10.79-17-14l-.57-3.41s2.84-2.46,6.43.38,3.41,3,3.41,3L210,35.76Z"/><path class="cls-2" d="M160.45,79.47l.88,6.31-.88,2.78H146.71s2.4,15.77,14.63,19.43h8.58s15.77,9.84,20.06,10.6l-1.26,1.26h-9L171.81,115l-6.69,6.18s-11.1-6.56-21.19-6.56l-1.26-13.12-12.74-7.19-3.28-3.66-.88-8.45H114.29V73.16a5.74,5.74,0,0,0-2.9-3l-.5-3.91,20.81,9.71h7.69l3.53-1.39S152.89,73.54,160.45,79.47Z"/><path class="cls-2" d="M54.24,101.42l8.33-7.69L80.1,95.62l9.33,7.44s-1.64,5.8,3.41,9.21l9.21,6.31v3.28L85.27,111.64,77.2,110.5l-9.46-9.33Z"/><polygon class="cls-2" points="236.23 109.34 244.41 112.96 250.85 119.67 243.54 116.72 237.97 116.05 236.23 109.34"/></g></g></svg>