<svg xmlns="http://www.w3.org/2000/svg" viewBox="0 0 296.3 105.95"><defs><style>.cls-1{fill:#fff;}.cls-2{fill:#070707;}</style></defs><title>range-l</title><g id="Layer_2" data-name="Layer 2"><g id="Objects"><polygon class="cls-1" points="4.12 103.9 14.56 90.11 26.82 87.11 50.22 65.34 65.93 67.47 85.29 45.66 97.06 51.42 138.26 3.03 158.44 23.48 170.72 14.4 193.53 35.51 209.69 55.2 220.18 49.17 234.86 61.8 244.3 74.14 249.93 70.47 267.07 80.35 291.26 103.9 4.12 103.9"/><path class="cls-2" d="M138.38,6.06l19.86,20.12,12.34-9.12L192,36.92l17.17,20.93,10.73-6.17,13.42,11.54L243.83,76.9l6.17-4L265.83,82l20.39,19.86H8.24l7.51-9.93,12.07-3L50.9,67.51l15.83,2.15L85.78,48.19,97.59,54l40.78-47.9M138.15,0l-2.9,3.4L96.53,48.88,87.58,44.5l-2.8-1.37-2.07,2.33L65.12,65.3,51.45,63.44l-1.92-.26L48.11,64.5,25.82,85.24l-11,2.7-1.42.35-.88,1.16L5,99.38l-5,6.57H296.3l-7.22-7L268.69,79.06l-.37-.36-.44-.26L252,69.32l-2.18-1.26-2.11,1.37-3,1.95-8.16-10.66-.26-.34-.32-.28L222.62,48.57l-2.2-1.89-2.51,1.45-7.72,4.44-15-18.25L195,34.1l-.21-.19L173.36,14.05l-2.49-2.3-2.73,2-9.49,7L141.29,3.18,138.15,0Z"/><path class="cls-2" d="M224.64,75.69l8.72,1.61,7.24,5.17.67,4.09s-3-3-4.83-3.49c0,0,.54,4.29,2.41,5.23L234,87.63l-7.92-6.57Z"/><polygon class="cls-2" points="220.21 57.04 229.74 65.49 231.89 70.46 227.32 69.38 221.82 69.38 221.82 62.14 219.54 60.8 220.21 57.04"/><path class="cls-2" d="M210,62.54l-2.28,1.21L186.81,39.06,169.9,23.63l-3.49,3,.27,6L176.61,40l-.54,8.18L186,50.06l2.28,1.48-1.74,10.2,3.09,10.6.13,7L188.28,82l14.62,12.61.13-3.35-4.43-8-.13-9.93-4.43-8.18s2.55-4.83,16,9.26l4.83-.67L208,65.76Z"/><path class="cls-2" d="M137.84,11.83v6.31l5.23,4.56V34.5l-.67,4.7,11.14,11.4s1.34,8.18-5.37,13.15l.27,2.28,9.66,7.11V79l6.31-1.74,7.51,6.17-1.48-3.89-4-7.24v-3s7.51-1.07,12.48,3.35l-3.62-6.17-5.1-5.1.13-5.5-4.7-4-.4-6s-7.51-7.65-12.07-9.93l-.4-2.41a3.52,3.52,0,0,1,4.56.27c2.55,2,2.41,2.15,2.41,2.15l-2.55-4.56Z"/><path class="cls-2" d="M122,62.41l.63,4.47-.63,2h-9.75S114,80,122.63,82.62h6.08s11.18,7,14.22,7.51L142,91h-6.35l-5.63-3.4L125.32,92s-7.87-4.65-15-4.65l-.89-9.3-9-5.1L98,70.37l-.63-6H89.27V57.93a4.07,4.07,0,0,0-2.06-2.15L86.86,53l14.76,6.89h5.46l2.5-1S116.64,58.2,122,62.41Z"/><path class="cls-2" d="M46.7,78l5.9-5.46L65,73.86l6.62,5.28a6.12,6.12,0,0,0,2.41,6.53l6.53,4.47v2.33L68.7,85.21,63,84.41l-6.71-6.62Z"/><path class="cls-2" d="M95.53,93.89l-.63-3.58a25.59,25.59,0,0,0-12.52-8.68l-2.24.85,11.9,10A8,8,0,0,1,95.53,93.89Z"/></g></g></svg>