<svg xmlns="http://www.w3.org/2000/svg" viewBox="0 0 386.99 151.3"><defs><style>.cls-1{fill:#fff;}</style></defs><title>range1</title><g id="Layer_2" data-name="Layer 2"><g id="Objects"><polygon points="386.99 151.3 314.99 49.18 282.99 78.83 278.75 74.59 209.57 151.3 386.99 151.3"/><polygon class="cls-1" points="352.16 145.65 341.81 145.65 337.57 126.36 352.16 145.65"/><polygon class="cls-1" points="333.73 145.65 323.38 145.65 315.38 109.41 333.73 145.65"/><polygon class="cls-1" points="361.1 145.65 317.81 61.65 375.69 145.65 361.1 145.65"/><polygon class="cls-1" points="313.97 56.24 304.87 74.83 298.28 75.77 301.34 81.41 298.28 87.06 298.28 106.12 284.87 96.71 284.87 107.06 279.22 105.65 260.63 133.88 260.63 110.35 250.04 113.65 279.46 81.88 282.71 85.18 313.97 56.24"/><polygon points="215.36 151.05 153.47 111.34 168.45 85.11 152.27 61.57 124.41 87.79 120.71 83.18 60.08 151.3 215.36 151.05"/><polygon class="cls-1" points="151.55 68 143.58 84.29 137.81 85.11 140.49 90.06 137.81 95.01 137.81 111.71 126.06 103.46 126.06 112.53 121.11 111.3 104.82 136.04 104.82 115.42 95.54 118.31 121.31 90.47 124.17 93.36 151.55 68"/><polygon points="277.1 67.77 282.99 72.24 294.99 60.24 261.57 0 221.81 50.59 215.69 41.18 118.04 151.3 209.57 151.3 235.69 130.12 246.99 113.41 277.1 67.77"/><polygon class="cls-1" points="287.72 58.41 262.04 13.41 256.4 40.47 242.51 40.47 244.63 46.59 228.87 72.24 256.87 56.24 266.51 64.71 272.4 54.12 282 64.24 287.72 58.41"/><polygon class="cls-1" points="214.51 52 218.98 58.12 140.63 134.35 214.51 52"/><polygon points="171.47 82.68 152.59 57 125.18 81.88 121.09 76.94 89.62 118.54 88.24 130.12 88.24 151.3 0 151.3 154.48 9.63 188.24 64.71 171.47 82.68"/><polygon class="cls-1" points="165.65 39.88 145.88 39.88 143.06 49.18 135.65 42.82 57.65 106.43 152.59 19.06 165.65 39.88"/><polygon class="cls-1" points="139.13 53.41 134.72 49.46 71.06 103.43 139.13 53.41"/></g></g></svg>