<svg xmlns="http://www.w3.org/2000/svg" viewBox="0 0 100 100"><defs><style>.cls-1{fill:#c69;}.cls-2{fill:#fff;}</style></defs><title>scss-round</title><g id="Layer_2" data-name="Layer 2"><g id="Lager_1" data-name="Lager 1"><circle class="cls-1" cx="50" cy="50" r="50"/><path class="cls-2" d="M76.9,27.8A9.23,9.23,0,0,0,72,22c-5.1-2.7-13.3-2.8-20.8-.1-4.5,1.6-13,5.2-19.4,11.1s-7.4,11.3-6.9,13.4c1.1,5.8,7.2,9.9,12,13.3a37.82,37.82,0,0,1,3.4,2.5c-2.7,1.4-10,5.5-12,9.8-1.5,3.4-.8,5.9-.2,7a4.71,4.71,0,0,0,2.6,2.6,11.24,11.24,0,0,0,3.2.4A13.51,13.51,0,0,0,45,75.8a14.57,14.57,0,0,0,1.6-12.3,16.63,16.63,0,0,1,5.5-.2c3.9.5,5.8,2,6.7,3.2a4.81,4.81,0,0,1,1.1,3.4,4.19,4.19,0,0,1-2,2.8c-.5.3-.9.6-.8,1.2.2.8,1,.7,1.3.7a6.17,6.17,0,0,0,4.3-5.4A8.52,8.52,0,0,0,60.2,63a12.16,12.16,0,0,0-9.3-3.4,19.37,19.37,0,0,0-6.2.8l-.1-.1a53.44,53.44,0,0,0-5-4.3c-4-3-7.7-5.9-7.5-10.2C32.4,40.4,37.7,35.1,48,30c9.1-4.5,16.5-4.7,20.4-3.3A5.26,5.26,0,0,1,71.5,29c.8,1.7.5,3.9-.9,6.3-2.3,4-8.1,9-17,10-5.4.6-7.7-1.8-7.8-1.9-.6-.7-1-1.1-1.7-.7s-.4,1.5-.2,1.9c.4,1.1,2.1,3,5,4,2.3.8,8.2,1.3,15.5-1.5C72.8,43.7,78.6,34.7,76.9,27.8ZM42.4,70.4c-.1.2-.1.4-.2.6a1.42,1.42,0,0,0-.2.6,8.7,8.7,0,0,1-1.8,2.6c-2.3,2.5-5.4,3.2-6.4,2.6a1.35,1.35,0,0,1-.5-.9c-.2-1.2.5-3.6,2.6-5.7a28.09,28.09,0,0,1,6.8-4.9A10.88,10.88,0,0,1,42.4,70.4Z"/></g></g></svg>