<svg xmlns="http://www.w3.org/2000/svg" viewBox="0 0 171.05 171.05"><title>wp-round</title><g id="Layer_2" data-name="Layer 2"><g id="Capa_1" data-name="Capa 1"><path id="WordPress" d="M0,85.53A85.53,85.53,0,1,0,85.53,0,85.52,85.52,0,0,0,0,85.53Zm6.6,0A78.74,78.74,0,0,1,13.44,53.4L51.09,156.54A78.9,78.9,0,0,1,6.6,85.53Zm78.92,78.88a78,78,0,0,1-22.31-3.22L86.92,92.4l24.25,66.44a6.79,6.79,0,0,0,.56,1.07A77.52,77.52,0,0,1,85.53,164.41ZM149.3,84c4.49-11.25,6-20.28,6-28.27a57.35,57.35,0,0,0-.56-8.11,78.9,78.9,0,0,1-29.58,106Zm-17-24.25c3,5.25,6.52,12,6.52,21.75,0,6.76-2,15.27-6,25.53l-7.87,26.28L96.38,48.51c4.77-.28,9-.76,9-.76,4.25-.52,3.74-6.76-.48-6.52,0,0-12.8,1-21,1-7.75,0-20.79-1-20.79-1-4.25-.24-4.73,6.28-.52,6.52,0,0,4,.48,8.27.76L83.14,82.19,65.88,134,37.14,48.51c4.77-.28,9-.76,9-.76,4.25-.52,3.74-6.76-.52-6.52,0,0-12.76,1-21,1-1.47,0-3.22,0-5.09-.08a78.86,78.86,0,0,1,119.2-14.87,8.37,8.37,0,0,0-1-.08c-7.75,0-13.24,6.76-13.24,14C124.53,47.75,128.27,53.28,132.28,59.76Z"/></g></g></svg>